<?xml version="1.0" encoding="UTF-8"?>
<svg width="24px" height="24px" viewBox="0 0 24 24" version="1.1" xmlns="http://www.w3.org/2000/svg" xmlns:xlink="http://www.w3.org/1999/xlink">
    <title>Google</title>
    <g stroke="none" stroke-width="1" fill="none" fill-rule="evenodd">
        <g transform="translate(-3.000000, -3.000000)">
            <g>
                <polygon points="0 0 30 0 30 30 0 30"></polygon>
                <path d="M21.8,13.3 L21.2,13.3 L15,13.3 L15,16.6 L18.1,16.6 C17.6,18.2 16.2,19.5 14.2,19.5 C11.7,19.5 9.7,17.5 9.7,15 C9.7,12.5 11.7,10.5 14.2,10.5 C15.5,10.5 16.6,11 17.3,11.7 L19.5,9.5 C18.2,8.3 16.3,7 14.1,7 C9.6,7 6,10.6 6,15 C6,19.4 9.6,23 14.1,23 C18.3,23 21.5,20.1 21.5,15.2 C21.5,14.6 21.5,14.1 21.4,13.6 C21.3,13.4 21.1,13.3 21.8,13.3 Z" fill="#4285F4" fill-rule="nonzero"></path>
            </g>
        </g>
    </g>
</svg>
